PathFileType	4	(X/Y/Z)	/home/nbianco/projects/addbio/data/HamnerRunning2013/Processed/subject04//results/MarkerData/run200.trc
DataRate	CameraRate	NumFrames	NumMarkers	Units	OrigDataRate	OrigDataStartFrame	OrigNumFrames
100	100	10	42	m	100	88	237
Frame#	Time	C7			CLAV			LACR			LASI			LCAL			LFAradius			LFAsuperior			LFAulna			LLEL			LMEL			LMT5			LPSI			LTB1			LTB2			LTB3			LTH1			LTH2			LTH3			LTOE			LUA1			LUA2			LUA3			RACR			RASI			RCAL			RFAradius			RFAsuperior			RFAulna			RLEL			RMEL			RMT5			RPSI			RTB1			RTB2			RTB3			RTH1			RTH2			RTH3			RTOE			RUA1			RUA2			RUA3		
		X1	Y1	Z1	X2	Y2	Z2	X3	Y3	Z3	X4	Y4	Z4	X5	Y5	Z5	X6	Y6	Z6	X7	Y7	Z7	X8	Y8	Z8	X9	Y9	Z9	X10	Y10	Z10	X11	Y11	Z11	X12	Y12	Z12	X13	Y13	Z13	X14	Y14	Z14	X15	Y15	Z15	X16	Y16	Z16	X17	Y17	Z17	X18	Y18	Z18	X19	Y19	Z19	X20	Y20	Z20	X21	Y21	Z21	X22	Y22	Z22	X23	Y23	Z23	X24	Y24	Z24	X25	Y25	Z25	X26	Y26	Z26	X27	Y27	Z27	X28	Y28	Z28	X29	Y29	Z29	X30	Y30	Z30	X31	Y31	Z31	X32	Y32	Z32	X33	Y33	Z33	X34	Y34	Z34	X35	Y35	Z35	X36	Y36	Z36	X37	Y37	Z37	X38	Y38	Z38	X39	Y39	Z39	X40	Y40	Z40	X41	Y41	Z41	X42	Y42	Z42

89	1.71	1.15903	1.52603	-0.298635	1.26577	1.42888	-0.265354	1.22335	1.5057	-0.468726	1.22722	0.981786	-0.441476	0.729344	0.367245	-0.378249	1.28272	1.14879	-0.464337	1.14096	1.18525	-0.569726	1.26599	1.08433	-0.492205	1.06505	1.22867	-0.590514	1.02491	1.22022	-0.507468	0.773094	0.152632	-0.442638	1.05506	1.02342	-0.363684	1.02498	0.352077	-0.40466	0.955646	0.359766	-0.446909	0.892107	0.311036	-0.393572	1.16267	0.819311	-0.49241	1.22255	0.693013	-0.472958	1.14859	0.57595	-0.470288	0.805649	0.138161	-0.358401	1.15553	1.40184	-0.546564	1.0691	1.36583	-0.533311	1.09333	1.29108	-0.572499	1.20898	1.47275	-0.121238	1.22801	0.994601	-0.182554	1.10936	0.102871	-0.293552	1.25196	1.17995	-0.120726	1.10353	1.19585	-0.0365328	1.23584	1.11428	-0.0957616	1.01803	1.21042	-0.0228338	0.986612	1.215	-0.11156	1.3298	0.0558523	-0.240634	1.05216	1.0253	-0.271496	1.31566	0.346233	-0.269859	1.25306	0.251481	-0.226794	1.25004	0.183385	-0.297565	1.21982	0.826842	-0.130051	1.28136	0.740099	-0.146035	1.26181	0.598186	-0.178017	1.34385	0.0753588	-0.317684	1.1311	1.34606	-0.0489056	1.0611	1.34842	-0.0540309	1.06387	1.27605	-0.038485
90	1.72	1.15967	1.52204	-0.297561	1.26651	1.42426	-0.265389	1.22011	1.49968	-0.468972	1.22476	0.977347	-0.443331	0.741818	0.367757	-0.381525	1.27417	1.12897	-0.469199	1.13136	1.17713	-0.567145	1.25283	1.06687	-0.499901	1.05572	1.22326	-0.58489	1.01845	1.21423	-0.500426	0.789476	0.154559	-0.447757	1.0533	1.01853	-0.363578	1.03925	0.349881	-0.407661	0.970158	0.358634	-0.450095	0.905939	0.310595	-0.396866	1.16225	0.81509	-0.493446	1.22858	0.690669	-0.475379	1.15857	0.572234	-0.473302	0.82035	0.139318	-0.362881	1.14982	1.39544	-0.544644	1.06281	1.36047	-0.528009	1.08517	1.28479	-0.566801	1.21109	1.46556	-0.120208	1.22733	0.991034	-0.183173	1.08982	0.103441	-0.293576	1.26308	1.16397	-0.122948	1.11623	1.18048	-0.0388666	1.24647	1.09797	-0.0981232	1.03025	1.19448	-0.0236371	0.996795	1.19838	-0.111284	1.31011	0.0549176	-0.240458	1.05102	1.02133	-0.271211	1.30613	0.340854	-0.269577	1.23924	0.248948	-0.226956	1.23383	0.181096	-0.297763	1.21869	0.822777	-0.130477	1.27916	0.73529	-0.147118	1.2581	0.593056	-0.178864	1.32424	0.0744364	-0.317824	1.13897	1.33302	-0.0509036	1.06823	1.33377	-0.0518111	1.07317	1.26112	-0.0401874
91	1.73	1.15957	1.51818	-0.296475	1.26687	1.42027	-0.265734	1.21553	1.49562	-0.469043	1.22196	0.97365	-0.445659	0.755202	0.366877	-0.38466	1.26428	1.11216	-0.473692	1.12186	1.17125	-0.564779	1.23845	1.05263	-0.506847	1.04644	1.2199	-0.579627	1.01141	1.21017	-0.494049	0.806838	0.154973	-0.452185	1.05177	1.01516	-0.363501	1.05422	0.348312	-0.410933	0.985244	0.358049	-0.453302	0.920772	0.309841	-0.400336	1.16126	0.811935	-0.494302	1.23492	0.689374	-0.477564	1.16931	0.569744	-0.47663	0.837031	0.139518	-0.367072	1.14309	1.39109	-0.542617	1.05618	1.35686	-0.522781	1.07688	1.28077	-0.561662	1.21362	1.45972	-0.119527	1.22669	0.988082	-0.184157	1.07023	0.104102	-0.293718	1.27486	1.15126	-0.125776	1.1294	1.16863	-0.0424071	1.25727	1.08493	-0.101145	1.04262	1.18128	-0.025217	1.00654	1.1844	-0.111714	1.2903	0.0546521	-0.240504	1.05012	1.01865	-0.270769	1.29524	0.335621	-0.269369	1.225	0.246244	-0.227242	1.21707	0.179061	-0.298123	1.21708	0.819459	-0.130794	1.27635	0.731018	-0.147709	1.25288	0.588483	-0.17936	1.30452	0.0737127	-0.31819	1.14684	1.32284	-0.0531386	1.07573	1.32166	-0.0509885	1.08249	1.24931	-0.0418111
92	1.74	1.15893	1.51495	-0.295157	1.26696	1.41739	-0.266359	1.20994	1.4933	-0.46897	1.21954	0.971114	-0.447617	0.769316	0.364598	-0.387448	1.2531	1.09985	-0.478302	1.1111	1.16735	-0.563201	1.22314	1.0426	-0.512776	1.03638	1.21887	-0.574983	1.00327	1.20855	-0.488565	0.82508	0.154085	-0.456189	1.05028	1.01326	-0.363519	1.06967	0.347476	-0.414137	1.0007	0.357811	-0.456249	0.936402	0.308806	-0.403665	1.15987	0.809696	-0.495049	1.24123	0.689467	-0.479663	1.18055	0.568318	-0.479893	0.855439	0.138745	-0.371091	1.13501	1.38895	-0.540496	1.04874	1.35518	-0.517687	1.06788	1.27912	-0.557209	1.21686	1.45541	-0.119003	1.22605	0.985775	-0.18531	1.05055	0.104864	-0.29396	1.28632	1.14297	-0.129124	1.14161	1.1598	-0.0462136	1.26787	1.07629	-0.105003	1.05409	1.17117	-0.0272956	1.01552	1.17385	-0.1128	1.27033	0.0548561	-0.240643	1.04937	1.01715	-0.270361	1.283	0.331028	-0.269843	1.21033	0.243712	-0.227592	1.19972	0.177459	-0.298539	1.21482	0.816765	-0.131142	1.27283	0.727333	-0.147723	1.24653	0.584789	-0.179543	1.28471	0.0731844	-0.318537	1.15389	1.31571	-0.0548103	1.08285	1.31235	-0.0511896	1.09134	1.24048	-0.043408
93	1.75	1.15819	1.51306	-0.29351	1.26696	1.41595	-0.26726	1.20387	1.49248	-0.468719	1.21802	0.970041	-0.448598	0.783905	0.360918	-0.38971	1.24084	1.09327	-0.483344	1.09795	1.16557	-0.562565	1.20733	1.03759	-0.51763	1.02473	1.22032	-0.570981	0.993848	1.2098	-0.48385	0.84451	0.152192	-0.459862	1.04867	1.01268	-0.363331	1.08546	0.347585	-0.41697	1.01633	0.357746	-0.458729	0.952678	0.307565	-0.406592	1.1586	0.808568	-0.49581	1.24729	0.691192	-0.481758	1.19181	0.56819	-0.482792	0.875427	0.137093	-0.374867	1.12571	1.38908	-0.538326	1.04027	1.35578	-0.51264	1.05764	1.27994	-0.553461	1.2208	1.45279	-0.118696	1.22541	0.984124	-0.186326	1.03078	0.105717	-0.294102	1.29638	1.13983	-0.133061	1.1518	1.15364	-0.0495211	1.27793	1.07273	-0.109766	1.06392	1.16422	-0.0295085	1.02387	1.16706	-0.114387	1.25022	0.0550318	-0.240667	1.04877	1.01672	-0.270056	1.26942	0.327213	-0.270702	1.19502	0.241564	-0.227842	1.18187	0.176234	-0.298741	1.21204	0.81463	-0.131733	1.26861	0.7242	-0.147626	1.23932	0.581903	-0.17949	1.26478	0.0727226	-0.318651	1.15993	1.31143	-0.0557476	1.08925	1.30601	-0.0517262	1.09939	1.23442	-0.0450393
94	1.76	1.1577	1.51289	-0.2917	1.26703	1.41593	-0.268498	1.19776	1.49302	-0.468267	1.21738	0.970408	-0.448588	0.798773	0.355812	-0.391327	1.22789	1.09287	-0.488626	1.08257	1.16681	-0.562493	1.19163	1.03792	-0.521455	1.01128	1.22439	-0.567475	0.983352	1.21403	-0.479645	0.865422	0.149537	-0.463159	1.04703	1.01327	-0.362757	1.10141	0.348828	-0.419339	1.03198	0.357804	-0.460705	0.969445	0.306176	-0.409002	1.15815	0.808886	-0.496648	1.25297	0.694539	-0.483804	1.20254	0.569757	-0.485214	0.896936	0.134685	-0.378315	1.11566	1.39147	-0.536151	1.03103	1.35894	-0.507492	1.04601	1.28335	-0.550335	1.22514	1.45199	-0.118799	1.22482	0.983151	-0.186984	1.01097	0.106709	-0.293992	1.30439	1.14195	-0.137752	1.15991	1.15063	-0.0521938	1.28727	1.07441	-0.115223	1.07208	1.16034	-0.0314969	1.03175	1.16389	-0.116149	1.23003	0.0549097	-0.240518	1.04832	1.01727	-0.269961	1.25475	0.324137	-0.271282	1.17898	0.239943	-0.2279	1.16368	0.175335	-0.298597	1.20899	0.813167	-0.132507	1.26378	0.721613	-0.147842	1.23131	0.579681	-0.179275	1.24477	0.072246	-0.318551	1.16544	1.30968	-0.0563821	1.09508	1.30276	-0.0519991	1.1065	1.23123	-0.0465157
95	1.77	1.15746	1.51432	-0.290085	1.26716	1.41719	-0.270163	1.19182	1.49492	-0.467659	1.21724	0.971973	-0.447979	0.813872	0.349251	-0.392234	1.2148	1.09808	-0.493608	1.06638	1.17202	-0.562371	1.17663	1.04323	-0.524284	0.996703	1.23113	-0.564276	0.972181	1.22098	-0.47581	0.887822	0.146266	-0.466108	1.04574	1.01503	-0.362091	1.11734	0.351171	-0.421354	1.04755	0.358051	-0.462304	0.986552	0.304645	-0.410888	1.15894	0.810809	-0.497553	1.25825	0.699315	-0.485703	1.21234	0.5732	-0.487184	0.919922	0.13164	-0.381481	1.10539	1.39601	-0.533968	1.0216	1.36463	-0.502145	1.0334	1.28946	-0.547672	1.2294	1.45301	-0.119418	1.22432	0.982953	-0.18725	0.991183	0.107921	-0.293732	1.3104	1.14891	-0.143171	1.16669	1.15155	-0.0545436	1.29581	1.08094	-0.12099	1.07911	1.1594	-0.0329663	1.03895	1.1638	-0.117562	1.20982	0.0545562	-0.240307	1.04794	1.01874	-0.270187	1.23932	0.321804	-0.2713	1.16226	0.238994	-0.227786	1.14523	0.174833	-0.298202	1.20574	0.812518	-0.133202	1.25845	0.719631	-0.148422	1.22248	0.578158	-0.178956	1.22471	0.0717825	-0.318426	1.17096	1.31011	-0.0571943	1.10068	1.30252	-0.0517269	1.11282	1.23093	-0.0475113
96	1.78	1.15716	1.51701	-0.288985	1.2672	1.41968	-0.272317	1.18611	1.4982	-0.467018	1.21724	0.974544	-0.447142	0.829294	0.341238	-0.392389	1.20205	1.10769	-0.497851	1.05099	1.18135	-0.561782	1.16272	1.05255	-0.526124	0.982114	1.24046	-0.561239	0.960702	1.2301	-0.47234	0.91147	0.142461	-0.468855	1.04522	1.01794	-0.361833	1.13314	0.354279	-0.423156	1.06298	0.358575	-0.463683	1.00392	0.302948	-0.412267	1.16084	0.814217	-0.498488	1.26314	0.705301	-0.487405	1.22106	0.578327	-0.488771	0.944295	0.128069	-0.384514	1.09533	1.40254	-0.531749	1.01261	1.37245	-0.496592	1.02052	1.29818	-0.545303	1.23318	1.45579	-0.120506	1.22396	0.9837	-0.187218	0.971551	0.109398	-0.293602	1.31486	1.15981	-0.148908	1.1729	1.15644	-0.0568012	1.30351	1.09149	-0.12674	1.0857	1.16106	-0.033715	1.04501	1.16616	-0.118038	1.18961	0.0542034	-0.240172	1.04762	1.02111	-0.270702	1.22329	0.320298	-0.271003	1.14486	0.238816	-0.227577	1.12661	0.174824	-0.297757	1.20227	0.812712	-0.133666	1.2527	0.718359	-0.149176	1.21278	0.577495	-0.178612	1.2047	0.0713896	-0.31844	1.1766	1.31245	-0.0582727	1.10627	1.30485	-0.0509001	1.1187	1.23322	-0.0478462
97	1.79	1.15653	1.52073	-0.288506	1.26702	1.42348	-0.274934	1.18068	1.50285	-0.466499	1.21729	0.978108	-0.446199	0.845195	0.331826	-0.391786	1.18997	1.12031	-0.501247	1.0372	1.19393	-0.560683	1.14998	1.06467	-0.526998	0.968414	1.25202	-0.558231	0.949258	1.24088	-0.469194	0.936088	0.138182	-0.471509	1.04558	1.02192	-0.362197	1.14875	0.357678	-0.424736	1.0782	0.359363	-0.46484	1.0216	0.301064	-0.413136	1.16331	0.818867	-0.499431	1.26761	0.712333	-0.488938	1.22881	0.584745	-0.490034	0.969938	0.124103	-0.38755	1.08578	1.41084	-0.529505	1.00446	1.38185	-0.490938	1.00809	1.30915	-0.543081	1.23635	1.46018	-0.12198	1.2238	0.98554	-0.186983	0.952154	0.111165	-0.29374	1.31816	1.17358	-0.154396	1.1789	1.16428	-0.0588421	1.31032	1.10497	-0.132309	1.0923	1.16482	-0.0336471	1.04971	1.17038	-0.117185	1.16942	0.0540658	-0.240141	1.04746	1.02439	-0.271328	1.20664	0.319689	-0.270731	1.1268	0.239413	-0.227341	1.10794	0.175312	-0.297373	1.19866	0.813713	-0.134029	1.24658	0.717872	-0.149994	1.20223	0.577805	-0.178365	1.18478	0.0710722	-0.318576	1.18212	1.31653	-0.0593676	1.11191	1.30907	-0.0496288	1.12456	1.23749	-0.047582
98	1.8	1.15551	1.52544	-0.288537	1.26655	1.42862	-0.277852	1.17561	1.50882	-0.466201	1.21751	0.982726	-0.445122	0.861714	0.321115	-0.390502	1.17873	1.1349	-0.503894	1.02487	1.20841	-0.559253	1.13837	1.07866	-0.527004	0.955946	1.26533	-0.555123	0.938281	1.25307	-0.466173	0.961534	0.133508	-0.474004	1.04667	1.02683	-0.362959	1.16407	0.361039	-0.425927	1.09312	0.360273	-0.465588	1.03964	0.298985	-0.413525	1.16586	0.824583	-0.500378	1.2717	0.720284	-0.490358	1.23577	0.592111	-0.491022	0.996751	0.119908	-0.390576	1.07697	1.42058	-0.52731	0.997299	1.3924	-0.485381	0.996641	1.32182	-0.540872	1.23895	1.46607	-0.123793	1.22385	0.988505	-0.186603	0.933019	0.113313	-0.293918	1.32044	1.18918	-0.159354	1.18465	1.17373	-0.0603577	1.31618	1.12035	-0.13762	1.09902	1.17017	-0.0327761	1.05335	1.17602	-0.114973	1.14927	0.054217	-0.24013	1.04767	1.0286	-0.271865	1.18924	0.320012	-0.270546	1.1082	0.240724	-0.227099	1.08937	0.176228	-0.296985	1.1952	0.815486	-0.134597	1.24021	0.718177	-0.150992	1.19084	0.579091	-0.178351	1.16495	0.0707894	-0.318679	1.18724	1.32223	-0.0602165	1.11751	1.3146	-0.0480547	1.13063	1.24313	-0.0468769
